<?xml version="1.0" encoding="utf-8" standalone="no"?>
<!DOCTYPE svg PUBLIC "-//W3C//DTD SVG 1.1//EN"
  "http://www.w3.org/Graphics/SVG/1.1/DTD/svg11.dtd">
<svg xmlns:xlink="http://www.w3.org/1999/xlink" width="396pt" height="252pt" viewBox="0 0 396 252" xmlns="http://www.w3.org/2000/svg" version="1.1">
 <metadata>
  <rdf:RDF xmlns:dc="http://purl.org/dc/elements/1.1/" xmlns:cc="http://creativecommons.org/ns#" xmlns:rdf="http://www.w3.org/1999/02/22-rdf-syntax-ns#">
   <cc:Work>
    <dc:type rdf:resource="http://purl.org/dc/dcmitype/StillImage"/>
    <dc:date>2024-10-08T20:58:08.407825</dc:date>
    <dc:format>image/svg+xml</dc:format>
    <dc:creator>
     <cc:Agent>
      <dc:title>Matplotlib v3.9.2, https://matplotlib.org/</dc:title>
     </cc:Agent>
    </dc:creator>
   </cc:Work>
  </rdf:RDF>
 </metadata>
 <defs>
  <style type="text/css">*{stroke-linejoin: round; stroke-linecap: butt}</style>
 </defs>
 <g id="figure_1">
  <g id="patch_1">
   <path d="M 0 252 
L 396 252 
L 396 0 
L 0 0 
z
" style="fill: #ffffff"/>
  </g>
  <g id="axes_1">
   <g id="patch_2">
    <path d="M 37.76 219.46 
L 383.04 219.46 
L 383.04 12.96 
L 37.76 12.96 
z
" style="fill: #ffffff"/>
   </g>
   <g id="matplotlib.axis_1">
    <g id="xtick_1">
     <g id="line2d_1">
      <defs>
       <path id="m324ecf9fe1" d="M 0 0 
L 0 6 
" style="stroke: #262626; stroke-width: 1.25"/>
      </defs>
      <g>
       <use xlink:href="#m324ecf9fe1" x="53.103633" y="219.46" style="fill: #262626; stroke: #262626; stroke-width: 1.25"/>
      </g>
     </g>
     <g id="text_1">
      <!-- 0 -->
      <g style="fill: #262626" transform="translate(50.045118 236.833594) scale(0.11 -0.11)">
       <defs>
        <path id="ArialMT-30" d="M 266 2259 
Q 266 3072 433 3567 
Q 600 4063 929 4331 
Q 1259 4600 1759 4600 
Q 2128 4600 2406 4451 
Q 2684 4303 2865 4023 
Q 3047 3744 3150 3342 
Q 3253 2941 3253 2259 
Q 3253 1453 3087 958 
Q 2922 463 2592 192 
Q 2263 -78 1759 -78 
Q 1097 -78 719 397 
Q 266 969 266 2259 
z
M 844 2259 
Q 844 1131 1108 757 
Q 1372 384 1759 384 
Q 2147 384 2411 759 
Q 2675 1134 2675 2259 
Q 2675 3391 2411 3762 
Q 2147 4134 1753 4134 
Q 1366 4134 1134 3806 
Q 844 3388 844 2259 
z
" transform="scale(0.015625)"/>
       </defs>
       <use xlink:href="#ArialMT-30"/>
      </g>
     </g>
    </g>
    <g id="xtick_2">
     <g id="line2d_2">
      <g>
       <use xlink:href="#m324ecf9fe1" x="96.967651" y="219.46" style="fill: #262626; stroke: #262626; stroke-width: 1.25"/>
      </g>
     </g>
     <g id="text_2">
      <!-- 500 -->
      <g style="fill: #262626" transform="translate(87.792104 236.833594) scale(0.11 -0.11)">
       <defs>
        <path id="ArialMT-35" d="M 266 1200 
L 856 1250 
Q 922 819 1161 601 
Q 1400 384 1738 384 
Q 2144 384 2425 690 
Q 2706 997 2706 1503 
Q 2706 1984 2436 2262 
Q 2166 2541 1728 2541 
Q 1456 2541 1237 2417 
Q 1019 2294 894 2097 
L 366 2166 
L 809 4519 
L 3088 4519 
L 3088 3981 
L 1259 3981 
L 1013 2750 
Q 1425 3038 1878 3038 
Q 2478 3038 2890 2622 
Q 3303 2206 3303 1553 
Q 3303 931 2941 478 
Q 2500 -78 1738 -78 
Q 1113 -78 717 272 
Q 322 622 266 1200 
z
" transform="scale(0.015625)"/>
       </defs>
       <use xlink:href="#ArialMT-35"/>
       <use xlink:href="#ArialMT-30" x="55.615234"/>
       <use xlink:href="#ArialMT-30" x="111.230469"/>
      </g>
     </g>
    </g>
    <g id="xtick_3">
     <g id="line2d_3">
      <g>
       <use xlink:href="#m324ecf9fe1" x="140.831668" y="219.46" style="fill: #262626; stroke: #262626; stroke-width: 1.25"/>
      </g>
     </g>
     <g id="text_3">
      <!-- 1000 -->
      <g style="fill: #262626" transform="translate(128.597606 236.833594) scale(0.11 -0.11)">
       <defs>
        <path id="ArialMT-31" d="M 2384 0 
L 1822 0 
L 1822 3584 
Q 1619 3391 1289 3197 
Q 959 3003 697 2906 
L 697 3450 
Q 1169 3672 1522 3987 
Q 1875 4303 2022 4600 
L 2384 4600 
L 2384 0 
z
" transform="scale(0.015625)"/>
       </defs>
       <use xlink:href="#ArialMT-31"/>
       <use xlink:href="#ArialMT-30" x="55.615234"/>
       <use xlink:href="#ArialMT-30" x="111.230469"/>
       <use xlink:href="#ArialMT-30" x="166.845703"/>
      </g>
     </g>
    </g>
    <g id="xtick_4">
     <g id="line2d_4">
      <g>
       <use xlink:href="#m324ecf9fe1" x="184.695686" y="219.46" style="fill: #262626; stroke: #262626; stroke-width: 1.25"/>
      </g>
     </g>
     <g id="text_4">
      <!-- 1500 -->
      <g style="fill: #262626" transform="translate(172.461623 236.833594) scale(0.11 -0.11)">
       <use xlink:href="#ArialMT-31"/>
       <use xlink:href="#ArialMT-35" x="55.615234"/>
       <use xlink:href="#ArialMT-30" x="111.230469"/>
       <use xlink:href="#ArialMT-30" x="166.845703"/>
      </g>
     </g>
    </g>
    <g id="xtick_5">
     <g id="line2d_5">
      <g>
       <use xlink:href="#m324ecf9fe1" x="228.559703" y="219.46" style="fill: #262626; stroke: #262626; stroke-width: 1.25"/>
      </g>
     </g>
     <g id="text_5">
      <!-- 2000 -->
      <g style="fill: #262626" transform="translate(216.325641 236.833594) scale(0.11 -0.11)">
       <defs>
        <path id="ArialMT-32" d="M 3222 541 
L 3222 0 
L 194 0 
Q 188 203 259 391 
Q 375 700 629 1000 
Q 884 1300 1366 1694 
Q 2113 2306 2375 2664 
Q 2638 3022 2638 3341 
Q 2638 3675 2398 3904 
Q 2159 4134 1775 4134 
Q 1369 4134 1125 3890 
Q 881 3647 878 3216 
L 300 3275 
Q 359 3922 746 4261 
Q 1134 4600 1788 4600 
Q 2447 4600 2831 4234 
Q 3216 3869 3216 3328 
Q 3216 3053 3103 2787 
Q 2991 2522 2730 2228 
Q 2469 1934 1863 1422 
Q 1356 997 1212 845 
Q 1069 694 975 541 
L 3222 541 
z
" transform="scale(0.015625)"/>
       </defs>
       <use xlink:href="#ArialMT-32"/>
       <use xlink:href="#ArialMT-30" x="55.615234"/>
       <use xlink:href="#ArialMT-30" x="111.230469"/>
       <use xlink:href="#ArialMT-30" x="166.845703"/>
      </g>
     </g>
    </g>
    <g id="xtick_6">
     <g id="line2d_6">
      <g>
       <use xlink:href="#m324ecf9fe1" x="272.423721" y="219.46" style="fill: #262626; stroke: #262626; stroke-width: 1.25"/>
      </g>
     </g>
     <g id="text_6">
      <!-- 2500 -->
      <g style="fill: #262626" transform="translate(260.189658 236.833594) scale(0.11 -0.11)">
       <use xlink:href="#ArialMT-32"/>
       <use xlink:href="#ArialMT-35" x="55.615234"/>
       <use xlink:href="#ArialMT-30" x="111.230469"/>
       <use xlink:href="#ArialMT-30" x="166.845703"/>
      </g>
     </g>
    </g>
    <g id="xtick_7">
     <g id="line2d_7">
      <g>
       <use xlink:href="#m324ecf9fe1" x="316.287738" y="219.46" style="fill: #262626; stroke: #262626; stroke-width: 1.25"/>
      </g>
     </g>
     <g id="text_7">
      <!-- 3000 -->
      <g style="fill: #262626" transform="translate(304.053676 236.833594) scale(0.11 -0.11)">
       <defs>
        <path id="ArialMT-33" d="M 269 1209 
L 831 1284 
Q 928 806 1161 595 
Q 1394 384 1728 384 
Q 2125 384 2398 659 
Q 2672 934 2672 1341 
Q 2672 1728 2419 1979 
Q 2166 2231 1775 2231 
Q 1616 2231 1378 2169 
L 1441 2663 
Q 1497 2656 1531 2656 
Q 1891 2656 2178 2843 
Q 2466 3031 2466 3422 
Q 2466 3731 2256 3934 
Q 2047 4138 1716 4138 
Q 1388 4138 1169 3931 
Q 950 3725 888 3313 
L 325 3413 
Q 428 3978 793 4289 
Q 1159 4600 1703 4600 
Q 2078 4600 2393 4439 
Q 2709 4278 2876 4000 
Q 3044 3722 3044 3409 
Q 3044 3113 2884 2869 
Q 2725 2625 2413 2481 
Q 2819 2388 3044 2092 
Q 3269 1797 3269 1353 
Q 3269 753 2831 336 
Q 2394 -81 1725 -81 
Q 1122 -81 723 278 
Q 325 638 269 1209 
z
" transform="scale(0.015625)"/>
       </defs>
       <use xlink:href="#ArialMT-33"/>
       <use xlink:href="#ArialMT-30" x="55.615234"/>
       <use xlink:href="#ArialMT-30" x="111.230469"/>
       <use xlink:href="#ArialMT-30" x="166.845703"/>
      </g>
     </g>
    </g>
    <g id="xtick_8">
     <g id="line2d_8">
      <g>
       <use xlink:href="#m324ecf9fe1" x="360.151756" y="219.46" style="fill: #262626; stroke: #262626; stroke-width: 1.25"/>
      </g>
     </g>
     <g id="text_8">
      <!-- 3500 -->
      <g style="fill: #262626" transform="translate(347.917693 236.833594) scale(0.11 -0.11)">
       <use xlink:href="#ArialMT-33"/>
       <use xlink:href="#ArialMT-35" x="55.615234"/>
       <use xlink:href="#ArialMT-30" x="111.230469"/>
       <use xlink:href="#ArialMT-30" x="166.845703"/>
      </g>
     </g>
    </g>
    <g id="text_9">
     <!-- Step -->
     <g style="fill: #262626" transform="translate(198.057813 251.755469) scale(0.12 -0.12)">
      <defs>
       <path id="ArialMT-53" d="M 288 1472 
L 859 1522 
Q 900 1178 1048 958 
Q 1197 738 1509 602 
Q 1822 466 2213 466 
Q 2559 466 2825 569 
Q 3091 672 3220 851 
Q 3350 1031 3350 1244 
Q 3350 1459 3225 1620 
Q 3100 1781 2813 1891 
Q 2628 1963 1997 2114 
Q 1366 2266 1113 2400 
Q 784 2572 623 2826 
Q 463 3081 463 3397 
Q 463 3744 659 4045 
Q 856 4347 1234 4503 
Q 1613 4659 2075 4659 
Q 2584 4659 2973 4495 
Q 3363 4331 3572 4012 
Q 3781 3694 3797 3291 
L 3216 3247 
Q 3169 3681 2898 3903 
Q 2628 4125 2100 4125 
Q 1550 4125 1298 3923 
Q 1047 3722 1047 3438 
Q 1047 3191 1225 3031 
Q 1400 2872 2139 2705 
Q 2878 2538 3153 2413 
Q 3553 2228 3743 1945 
Q 3934 1663 3934 1294 
Q 3934 928 3725 604 
Q 3516 281 3123 101 
Q 2731 -78 2241 -78 
Q 1619 -78 1198 103 
Q 778 284 539 648 
Q 300 1013 288 1472 
z
" transform="scale(0.015625)"/>
       <path id="ArialMT-74" d="M 1650 503 
L 1731 6 
Q 1494 -44 1306 -44 
Q 1000 -44 831 53 
Q 663 150 594 308 
Q 525 466 525 972 
L 525 2881 
L 113 2881 
L 113 3319 
L 525 3319 
L 525 4141 
L 1084 4478 
L 1084 3319 
L 1650 3319 
L 1650 2881 
L 1084 2881 
L 1084 941 
Q 1084 700 1114 631 
Q 1144 563 1211 522 
Q 1278 481 1403 481 
Q 1497 481 1650 503 
z
" transform="scale(0.015625)"/>
       <path id="ArialMT-65" d="M 2694 1069 
L 3275 997 
Q 3138 488 2766 206 
Q 2394 -75 1816 -75 
Q 1088 -75 661 373 
Q 234 822 234 1631 
Q 234 2469 665 2931 
Q 1097 3394 1784 3394 
Q 2450 3394 2872 2941 
Q 3294 2488 3294 1666 
Q 3294 1616 3291 1516 
L 816 1516 
Q 847 969 1125 678 
Q 1403 388 1819 388 
Q 2128 388 2347 550 
Q 2566 713 2694 1069 
z
M 847 1978 
L 2700 1978 
Q 2663 2397 2488 2606 
Q 2219 2931 1791 2931 
Q 1403 2931 1139 2672 
Q 875 2413 847 1978 
z
" transform="scale(0.015625)"/>
       <path id="ArialMT-70" d="M 422 -1272 
L 422 3319 
L 934 3319 
L 934 2888 
Q 1116 3141 1344 3267 
Q 1572 3394 1897 3394 
Q 2322 3394 2647 3175 
Q 2972 2956 3137 2557 
Q 3303 2159 3303 1684 
Q 3303 1175 3120 767 
Q 2938 359 2589 142 
Q 2241 -75 1856 -75 
Q 1575 -75 1351 44 
Q 1128 163 984 344 
L 984 -1272 
L 422 -1272 
z
M 931 1641 
Q 931 1000 1190 694 
Q 1450 388 1819 388 
Q 2194 388 2461 705 
Q 2728 1022 2728 1688 
Q 2728 2322 2467 2637 
Q 2206 2953 1844 2953 
Q 1484 2953 1207 2617 
Q 931 2281 931 1641 
z
" transform="scale(0.015625)"/>
      </defs>
      <use xlink:href="#ArialMT-53"/>
      <use xlink:href="#ArialMT-74" x="66.699219"/>
      <use xlink:href="#ArialMT-65" x="94.482422"/>
      <use xlink:href="#ArialMT-70" x="150.097656"/>
     </g>
    </g>
   </g>
   <g id="matplotlib.axis_2">
    <g id="ytick_1">
     <g id="line2d_9">
      <defs>
       <path id="m68fe9fb8db" d="M 0 0 
L -6 0 
" style="stroke: #262626; stroke-width: 1.25"/>
      </defs>
      <g>
       <use xlink:href="#m68fe9fb8db" x="37.76" y="210.073636" style="fill: #262626; stroke: #262626; stroke-width: 1.25"/>
      </g>
     </g>
     <g id="text_10">
      <!-- 0.0 -->
      <g style="fill: #262626" transform="translate(12.97 214.010433) scale(0.11 -0.11)">
       <defs>
        <path id="ArialMT-2e" d="M 581 0 
L 581 641 
L 1222 641 
L 1222 0 
L 581 0 
z
" transform="scale(0.015625)"/>
       </defs>
       <use xlink:href="#ArialMT-30"/>
       <use xlink:href="#ArialMT-2e" x="55.615234"/>
       <use xlink:href="#ArialMT-30" x="83.398438"/>
      </g>
     </g>
    </g>
    <g id="ytick_2">
     <g id="line2d_10">
      <g>
       <use xlink:href="#m68fe9fb8db" x="37.76" y="175.069044" style="fill: #262626; stroke: #262626; stroke-width: 1.25"/>
      </g>
     </g>
     <g id="text_11">
      <!-- 0.1 -->
      <g style="fill: #262626" transform="translate(12.97 179.005841) scale(0.11 -0.11)">
       <use xlink:href="#ArialMT-30"/>
       <use xlink:href="#ArialMT-2e" x="55.615234"/>
       <use xlink:href="#ArialMT-31" x="83.398438"/>
      </g>
     </g>
    </g>
    <g id="ytick_3">
     <g id="line2d_11">
      <g>
       <use xlink:href="#m68fe9fb8db" x="37.76" y="140.064452" style="fill: #262626; stroke: #262626; stroke-width: 1.25"/>
      </g>
     </g>
     <g id="text_12">
      <!-- 0.2 -->
      <g style="fill: #262626" transform="translate(12.97 144.001248) scale(0.11 -0.11)">
       <use xlink:href="#ArialMT-30"/>
       <use xlink:href="#ArialMT-2e" x="55.615234"/>
       <use xlink:href="#ArialMT-32" x="83.398438"/>
      </g>
     </g>
    </g>
    <g id="ytick_4">
     <g id="line2d_12">
      <g>
       <use xlink:href="#m68fe9fb8db" x="37.76" y="105.059859" style="fill: #262626; stroke: #262626; stroke-width: 1.25"/>
      </g>
     </g>
     <g id="text_13">
      <!-- 0.3 -->
      <g style="fill: #262626" transform="translate(12.97 108.996656) scale(0.11 -0.11)">
       <use xlink:href="#ArialMT-30"/>
       <use xlink:href="#ArialMT-2e" x="55.615234"/>
       <use xlink:href="#ArialMT-33" x="83.398438"/>
      </g>
     </g>
    </g>
    <g id="ytick_5">
     <g id="line2d_13">
      <g>
       <use xlink:href="#m68fe9fb8db" x="37.76" y="70.055267" style="fill: #262626; stroke: #262626; stroke-width: 1.25"/>
      </g>
     </g>
     <g id="text_14">
      <!-- 0.4 -->
      <g style="fill: #262626" transform="translate(12.97 73.992064) scale(0.11 -0.11)">
       <defs>
        <path id="ArialMT-34" d="M 2069 0 
L 2069 1097 
L 81 1097 
L 81 1613 
L 2172 4581 
L 2631 4581 
L 2631 1613 
L 3250 1613 
L 3250 1097 
L 2631 1097 
L 2631 0 
L 2069 0 
z
M 2069 1613 
L 2069 3678 
L 634 1613 
L 2069 1613 
z
" transform="scale(0.015625)"/>
       </defs>
       <use xlink:href="#ArialMT-30"/>
       <use xlink:href="#ArialMT-2e" x="55.615234"/>
       <use xlink:href="#ArialMT-34" x="83.398438"/>
      </g>
     </g>
    </g>
    <g id="ytick_6">
     <g id="line2d_14">
      <g>
       <use xlink:href="#m68fe9fb8db" x="37.76" y="35.050674" style="fill: #262626; stroke: #262626; stroke-width: 1.25"/>
      </g>
     </g>
     <g id="text_15">
      <!-- 0.5 -->
      <g style="fill: #262626" transform="translate(12.97 38.987471) scale(0.11 -0.11)">
       <use xlink:href="#ArialMT-30"/>
       <use xlink:href="#ArialMT-2e" x="55.615234"/>
       <use xlink:href="#ArialMT-35" x="83.398438"/>
      </g>
     </g>
    </g>
    <g id="text_16">
     <!-- MAE -->
     <g style="fill: #262626" transform="translate(6.585 129.212187) rotate(-90) scale(0.12 -0.12)">
      <defs>
       <path id="ArialMT-4d" d="M 475 0 
L 475 4581 
L 1388 4581 
L 2472 1338 
Q 2622 884 2691 659 
Q 2769 909 2934 1394 
L 4031 4581 
L 4847 4581 
L 4847 0 
L 4263 0 
L 4263 3834 
L 2931 0 
L 2384 0 
L 1059 3900 
L 1059 0 
L 475 0 
z
" transform="scale(0.015625)"/>
       <path id="ArialMT-41" d="M -9 0 
L 1750 4581 
L 2403 4581 
L 4278 0 
L 3588 0 
L 3053 1388 
L 1138 1388 
L 634 0 
L -9 0 
z
M 1313 1881 
L 2866 1881 
L 2388 3150 
Q 2169 3728 2063 4100 
Q 1975 3659 1816 3225 
L 1313 1881 
z
" transform="scale(0.015625)"/>
       <path id="ArialMT-45" d="M 506 0 
L 506 4581 
L 3819 4581 
L 3819 4041 
L 1113 4041 
L 1113 2638 
L 3647 2638 
L 3647 2100 
L 1113 2100 
L 1113 541 
L 3925 541 
L 3925 0 
L 506 0 
z
" transform="scale(0.015625)"/>
      </defs>
      <use xlink:href="#ArialMT-4d"/>
      <use xlink:href="#ArialMT-41" x="83.300781"/>
      <use xlink:href="#ArialMT-45" x="150"/>
     </g>
    </g>
   </g>
   <g id="line2d_15">
    <path d="M 53.454545 22.346364 
L 54.419554 114.219582 
L 54.858194 67.041063 
L 55.03365 62.705991 
L 55.47229 68.385969 
L 56.612755 105.00035 
L 57.226851 97.112494 
L 57.314579 92.074188 
L 57.402307 94.675015 
L 57.840947 69.76331 
L 58.367315 77.75387 
L 58.455043 87.99339 
L 58.542771 85.596565 
L 58.6305 87.1985 
L 58.893684 82.289835 
L 59.06914 83.950503 
L 59.244596 83.448235 
L 59.332324 88.656251 
L 59.858692 92.481815 
L 60.297332 97.866396 
L 60.911428 100.988592 
L 61.788709 89.758578 
L 62.139621 93.001526 
L 62.402805 91.339199 
L 62.490533 102.604683 
L 63.280085 91.561384 
L 63.718726 98.937489 
L 64.157366 90.413385 
L 64.332822 91.490143 
L 64.508278 88.290228 
L 65.034646 87.649514 
L 65.122374 91.207733 
L 65.73647 88.181149 
L 65.911926 94.051504 
L 65.999654 89.572447 
L 66.262839 91.516213 
L 66.876935 99.681951 
L 67.315575 82.709 
L 67.491031 91.351655 
L 68.017399 86.956327 
L 68.105127 89.847836 
L 68.192855 86.411287 
L 68.631496 94.869846 
L 69.245592 96.813987 
L 69.421048 93.066831 
L 69.77196 83.317874 
L 69.859688 87.275135 
L 69.947416 86.010545 
L 70.561512 87.935805 
L 70.824696 90.937133 
L 70.912424 98.874437 
L 71.000152 95.60761 
L 71.08788 96.691503 
L 71.263337 92.070475 
L 71.614249 91.163522 
L 71.789705 96.241532 
L 71.965161 97.38517 
L 72.403801 105.41288 
L 72.491529 119.848109 
L 72.754713 131.541395 
L 73.193353 98.286344 
L 74.070634 76.012353 
L 74.509274 99.027571 
L 74.68473 113.491916 
L 75.737466 108.221401 
L 75.912922 94.428909 
L 76.877931 77.366356 
L 77.141115 88.018793 
L 77.492027 120.852383 
L 77.842939 115.976736 
L 78.106123 101.604257 
L 78.369307 100.844962 
L 78.544763 91.765761 
L 79.15886 83.117608 
L 79.246588 83.901941 
L 80.123868 97.410552 
L 80.47478 95.788066 
L 80.825692 97.786517 
L 81.088876 82.736833 
L 81.352061 84.081771 
L 82.667981 96.06769 
L 82.755709 98.236123 
L 83.194349 86.646648 
L 83.457533 88.545399 
L 83.983902 88.12446 
L 84.159358 89.36301 
L 84.51027 86.663892 
L 84.861182 94.514422 
L 85.036638 90.160947 
L 85.124366 94.941035 
L 85.212094 88.945911 
L 85.299822 89.79846 
L 86.264831 91.719202 
L 86.966655 89.430246 
L 87.317567 84.87928 
L 87.493023 95.10528 
L 87.668479 95.344688 
L 87.931663 86.872181 
L 88.370303 82.937527 
L 88.545759 90.879797 
L 88.9844 89.76152 
L 89.42304 94.214476 
L 89.510768 97.353143 
L 90.037136 87.730249 
L 90.124864 91.885908 
L 90.475776 91.054943 
L 91.353057 88.390658 
L 91.440785 83.742965 
L 91.616241 89.197942 
L 92.054881 93.306375 
L 92.230337 88.459949 
L 92.581249 95.510027 
L 92.756705 84.812305 
L 93.107617 85.137664 
L 93.546257 94.202406 
L 93.89717 91.976887 
L 93.984898 94.755092 
L 94.160354 85.857453 
L 94.33581 86.119781 
L 94.686722 83.976395 
L 95.21309 97.350681 
L 95.300818 96.529815 
L 95.827186 79.08534 
L 96.002642 85.268963 
L 96.441283 91.410848 
L 97.757203 86.200098 
L 97.844931 86.962044 
L 98.020387 83.857051 
L 98.108115 91.444564 
L 98.195843 83.922409 
L 98.459027 86.145392 
L 98.634483 89.854637 
L 99.862676 84.28187 
L 100.12586 92.113925 
L 100.213588 90.474142 
L 100.301316 88.527643 
L 100.476772 90.62133 
L 100.652228 95.018505 
L 100.827684 89.734386 
L 101.00314 90.560823 
L 101.354053 87.561331 
L 101.529509 90.730962 
L 101.880421 91.792405 
L 102.582245 87.007674 
L 102.933157 94.552343 
L 103.196341 94.56725 
L 103.371797 94.710411 
L 104.336806 94.830611 
L 104.424534 92.814373 
L 104.687718 90.408252 
L 104.863174 84.646642 
L 104.950902 89.150486 
L 105.214086 85.523071 
L 105.389542 90.342206 
L 106.003638 100.884802 
L 106.442279 100.728684 
L 106.880919 100.882017 
L 107.144103 93.710643 
L 107.670471 86.703201 
L 107.758199 87.270565 
L 108.284567 95.227993 
L 108.635479 104.138224 
L 108.986392 97.728097 
L 109.51276 97.516845 
L 109.600488 97.279597 
L 110.039128 93.106724 
L 110.214584 92.952056 
L 110.565496 82.905261 
L 111.004136 90.379011 
L 111.618233 94.034114 
L 111.881417 93.855525 
L 112.407785 90.802944 
L 112.758697 93.269602 
L 113.109609 91.736645 
L 113.811434 88.091171 
L 113.98689 86.192441 
L 114.162346 90.547272 
L 114.250074 88.464361 
L 114.688714 89.139084 
L 115.829178 98.405229 
L 116.267818 89.509906 
L 116.355547 90.106303 
L 116.531003 92.248708 
L 116.706459 90.600205 
L 116.794187 88.250815 
L 116.969643 96.268979 
L 117.057371 87.429531 
L 117.232827 94.427584 
L 117.320555 93.732801 
L 117.408283 88.900729 
L 117.846923 94.402098 
L 118.197835 93.064839 
L 118.373291 86.762111 
L 119.426028 94.418936 
L 120.127852 93.089229 
L 120.21558 87.047254 
L 120.566492 95.794283 
L 120.829676 88.664179 
L 121.356045 86.119416 
L 121.531501 91.602111 
L 121.706957 91.458971 
L 122.233325 87.989416 
L 123.636973 84.058194 
L 123.900158 89.569046 
L 124.163342 86.802077 
L 124.865166 87.395939 
L 124.952894 93.564206 
L 125.742446 94.129954 
L 126.093358 92.280965 
L 126.181086 92.363129 
L 126.444271 84.0173 
L 126.707455 92.824033 
L 126.795183 92.238881 
L 127.058367 93.190703 
L 127.233823 91.524141 
L 127.760191 92.033899 
L 128.286559 83.788261 
L 128.725199 93.740166 
L 129.076112 94.690371 
L 129.427024 87.381877 
L 129.514752 89.606174 
L 130.655216 91.918144 
L 130.830672 87.21782 
L 131.357041 97.336921 
L 131.620225 88.533548 
L 131.883409 92.852147 
L 132.146593 89.489928 
L 132.234321 91.382973 
L 132.672961 87.065114 
L 132.760689 89.409371 
L 132.936145 86.571901 
L 133.023873 89.757305 
L 133.637969 81.94309 
L 133.725697 90.851829 
L 133.901154 86.839987 
L 134.51525 89.380411 
L 134.690706 88.160597 
L 134.778434 95.760546 
L 134.866162 89.956038 
L 135.480258 89.090887 
L 135.743442 89.691457 
L 136.357538 101.464612 
L 136.620723 97.532848 
L 136.883907 96.844408 
L 137.322547 89.795883 
L 137.585731 87.580724 
L 137.936643 89.023401 
L 138.024371 91.705943 
L 138.901652 92.772884 
L 138.98938 88.694287 
L 139.252564 90.672187 
L 139.603476 83.475964 
L 140.129844 95.750541 
L 141.007124 87.165346 
L 141.094852 83.384452 
L 141.18258 83.965713 
L 141.358036 85.683674 
L 141.972133 87.40031 
L 142.147589 91.571962 
L 142.761685 90.814982 
L 143.112597 95.240011 
L 143.288053 88.96762 
L 143.902149 89.16651 
L 143.989878 84.348031 
L 144.077606 87.905885 
L 144.603974 93.495239 
L 144.867158 84.94542 
L 145.744438 92.532297 
L 146.09535 84.519641 
L 146.270806 88.677439 
L 146.972631 93.717486 
L 147.148087 87.632197 
L 147.235815 91.160893 
L 147.586727 96.385663 
L 147.849911 94.375674 
L 148.288551 87.864031 
L 148.376279 92.829124 
L 148.464007 88.902284 
L 148.814919 89.231419 
L 149.429016 96.508262 
L 149.779928 93.106661 
L 149.867656 87.034861 
L 149.955384 88.937377 
L 150.394024 92.963386 
L 150.657208 85.897523 
L 150.832664 89.730411 
L 151.446761 92.075044 
L 151.534489 89.401234 
L 151.797673 88.698981 
L 151.885401 89.593082 
L 152.060857 87.590791 
L 152.148585 92.166784 
L 152.411769 91.130973 
L 152.587225 92.457143 
L 153.025865 93.886843 
L 153.639961 91.79759 
L 154.078602 86.940136 
L 154.16633 91.792008 
L 155.04361 88.273484 
L 155.219066 93.818553 
L 155.48225 87.845128 
L 156.096346 86.624959 
L 156.35953 91.265778 
L 156.447258 86.176501 
L 156.798171 92.345269 
L 156.973627 88.918933 
L 157.412267 83.3209 
L 157.850907 89.241309 
L 158.114091 94.653963 
L 158.903643 86.794013 
L 158.991372 82.8309 
L 159.95638 93.503658 
L 160.39502 95.477229 
L 160.570476 91.683628 
L 160.921388 89.241726 
L 162.237309 90.077584 
L 162.412765 87.032002 
L 162.763677 90.665187 
L 162.939133 88.882212 
L 163.114589 89.11437 
L 163.377773 87.442853 
L 163.640957 89.480018 
L 163.728685 91.723615 
L 164.255054 94.915873 
L 164.605966 86.017034 
L 165.044606 90.235172 
L 165.132334 89.254505 
L 165.220062 86.921974 
L 165.570974 87.281665 
L 165.834158 86.476968 
L 166.272798 87.855748 
L 166.535983 89.954369 
L 166.974623 87.907972 
L 167.062351 94.853029 
L 167.325535 95.514451 
L 167.676447 90.966186 
L 168.027359 90.154563 
L 168.465999 90.418998 
L 168.904639 90.351501 
L 169.080096 82.462874 
L 169.34328 87.238163 
L 169.431008 91.213909 
L 170.22056 86.602801 
L 171.09784 90.436545 
L 171.361024 90.44561 
L 171.887393 88.812817 
L 172.413761 88.199687 
L 172.852401 91.875163 
L 173.115585 87.449112 
L 173.729681 87.92942 
L 173.817409 90.680856 
L 174.168322 91.916203 
L 174.69469 86.402816 
L 175.045602 84.58624 
L 175.308786 88.958565 
L 175.659698 89.594814 
L 177.414259 87.223568 
L 177.765171 95.74471 
L 179.081092 88.37597 
L 179.256548 91.258788 
L 179.344276 89.593144 
L 179.432004 85.067768 
L 179.519732 95.765282 
L 180.221556 87.397587 
L 180.747924 87.180869 
L 180.92338 94.427282 
L 181.011108 84.403322 
L 181.186564 92.742463 
L 181.274292 90.984902 
L 182.327029 92.778736 
L 182.414757 93.641238 
L 182.590213 89.480487 
L 183.204309 88.961622 
L 183.555221 95.222767 
L 183.818405 87.4674 
L 184.169318 84.180626 
L 184.52023 90.167353 
L 184.607958 83.781793 
L 184.871142 87.888745 
L 185.485238 92.158773 
L 185.572966 86.431129 
L 185.660694 90.049198 
L 185.83615 89.442931 
L 186.099334 87.2591 
L 187.152071 85.176138 
L 187.678439 95.285986 
L 188.029351 85.103926 
L 188.292535 88.670397 
L 188.906631 89.106953 
L 189.257544 91.167152 
L 190.134824 93.256864 
L 190.398008 88.622273 
L 190.485736 89.336721 
L 190.661192 89.520787 
L 191.099832 91.46619 
L 191.363016 93.633174 
L 191.713929 87.823617 
L 192.152569 84.102917 
L 193.205305 90.851933 
L 193.556217 90.273343 
L 193.731673 84.835245 
L 194.433498 84.996287 
L 195.837146 87.538996 
L 196.188058 88.69678 
L 196.53897 91.499678 
L 196.714427 90.584963 
L 196.977611 91.829199 
L 197.503979 91.458919 
L 197.591707 90.069269 
L 198.205803 89.951949 
L 198.907627 88.604267 
L 199.25854 92.358862 
L 199.960364 87.438847 
L 200.399004 93.669227 
L 200.925372 86.268971 
L 201.0131 88.626895 
L 201.100828 85.57905 
L 201.188556 92.13384 
L 201.627197 81.005289 
L 201.714925 94.409307 
L 201.802653 89.924011 
L 202.416749 90.539155 
L 202.592205 88.789533 
L 202.855389 87.37714 
L 203.030845 96.045949 
L 203.206301 87.396398 
L 203.294029 91.681991 
L 203.820397 91.028821 
L 204.17131 83.153912 
L 204.259038 87.984272 
L 204.434494 87.253999 
L 204.873134 86.564828 
L 205.662686 91.122565 
L 206.013598 91.195663 
L 206.189054 89.887728 
L 206.627694 95.441133 
L 206.890879 90.198503 
L 206.978607 92.130084 
L 207.943615 89.608208 
L 208.820895 92.04815 
L 209.259536 83.841163 
L 209.698176 86.758136 
L 209.785904 90.163232 
L 210.049088 88.96134 
L 210.663184 91.910424 
L 211.014096 83.541509 
L 211.189552 88.070901 
L 212.680929 90.859841 
L 213.031841 87.698441 
L 213.295025 91.437554 
L 213.382753 94.889855 
L 213.645937 88.624349 
L 213.821393 89.543957 
L 214.172306 94.72173 
L 214.347762 91.828949 
L 215.488226 88.426201 
L 216.277778 96.684691 
L 216.716419 97.364807 
L 216.804147 84.973743 
L 216.891875 91.546153 
L 217.505971 90.959385 
L 218.032339 81.901455 
L 218.295523 82.643204 
L 218.558707 91.41622 
L 218.734163 84.933798 
L 219.34826 92.050528 
L 219.699172 93.916532 
L 219.962356 93.029119 
L 220.488724 92.185208 
L 220.576452 95.285036 
L 220.66418 87.656055 
L 220.927364 100.332293 
L 221.366004 82.773064 
L 221.980101 89.998268 
L 222.857381 89.324432 
L 222.945109 87.85749 
L 223.383749 91.127176 
L 223.471477 88.082356 
L 223.734661 87.068703 
L 223.910117 88.722944 
L 224.173301 88.66201 
L 224.69967 85.666023 
L 225.050582 93.822893 
L 225.313766 86.193067 
L 225.401494 93.92976 
L 226.541958 88.452917 
L 226.717415 97.155287 
L 227.419239 85.890617 
L 227.506967 91.835239 
L 227.770151 82.914055 
L 230.05108 97.675394 
L 230.401992 88.733178 
L 230.840632 84.948216 
L 231.279272 92.949104 
L 231.630184 91.063529 
L 231.717912 86.270557 
L 232.332009 90.152174 
L 232.682921 86.944226 
L 233.297017 98.043357 
L 233.384745 92.066802 
L 233.472473 93.248487 
L 234.437482 84.700138 
L 234.52521 92.624476 
L 234.700666 88.59949 
L 235.051578 90.005111 
L 235.490218 88.928062 
L 236.192042 86.901788 
L 236.367498 84.165635 
L 236.542954 89.170015 
L 237.069323 88.636419 
L 237.157051 91.969053 
L 237.332507 87.972234 
L 237.595691 85.664009 
L 237.771147 92.779466 
L 238.122059 90.336771 
L 238.209787 81.693291 
L 238.648427 92.098266 
L 238.999339 87.245945 
L 239.087067 87.806195 
L 239.43798 91.531235 
L 239.701164 85.617304 
L 240.490716 88.744883 
L 240.7539 96.095294 
L 241.63118 93.134661 
L 242.508461 87.570094 
L 242.771645 89.15131 
L 243.385741 85.404509 
L 243.999837 91.04954 
L 244.964846 87.318407 
L 245.140302 84.246422 
L 245.578942 94.54311 
L 246.193038 87.653979 
L 246.368494 89.744682 
L 246.894863 88.760083 
L 247.070319 87.332877 
L 247.333503 87.716781 
L 247.421231 89.107297 
L 247.947599 84.057015 
L 248.298511 89.082635 
L 249.263519 90.016545 
L 249.526704 92.578157 
L 249.965344 86.46759 
L 251.105808 91.301967 
L 251.719904 81.531238 
L 251.983089 87.151732 
L 252.772641 89.73352 
L 253.211281 89.040385 
L 254.176289 89.755146 
L 254.878114 92.842341 
L 255.316754 92.86935 
L 255.404482 88.586199 
L 255.843122 90.564318 
L 256.281762 93.56549 
L 256.544946 93.779975 
L 256.983587 88.633655 
L 257.685411 92.273516 
L 257.948595 89.804156 
L 258.387235 88.50778 
L 258.562691 92.017229 
L 258.650419 91.708186 
L 258.738147 91.008687 
L 258.913603 91.716636 
L 259.439972 90.156983 
L 259.878612 90.786795 
L 260.054068 88.57825 
L 261.28226 91.954636 
L 261.7209 92.563458 
L 262.247269 92.108051 
L 262.685909 87.425024 
L 262.861365 91.173922 
L 263.036821 88.199207 
L 263.124549 89.885183 
L 263.387733 85.034824 
L 263.475461 88.636086 
L 264.966838 89.761718 
L 266.107302 95.369349 
L 266.370486 91.223653 
L 266.721398 88.321566 
L 266.809126 95.999902 
L 267.072311 92.49688 
L 267.247767 86.13377 
L 267.335495 89.841827 
L 268.388231 91.452389 
L 269.090055 88.864696 
L 269.265511 90.048394 
L 269.353239 86.385739 
L 269.704152 87.972599 
L 270.055064 93.875983 
L 270.405976 88.610036 
L 271.020072 92.231923 
L 271.1078 90.451129 
L 271.458712 90.928787 
L 271.809624 93.060572 
L 272.248265 94.252939 
L 272.686905 86.987968 
L 272.862361 92.612656 
L 272.950089 91.091675 
L 273.125545 94.8668 
L 273.301001 86.669379 
L 273.564185 84.202294 
L 273.915097 94.324952 
L 274.090553 88.363023 
L 274.266009 96.696302 
L 274.441466 92.489942 
L 275.055562 88.980024 
L 275.14329 88.639998 
L 275.757386 93.331746 
L 275.932842 89.162963 
L 276.196026 91.342684 
L 278.126043 89.725654 
L 278.213771 88.01124 
L 278.389227 92.473678 
L 279.003323 95.229245 
L 279.178779 87.051291 
L 279.266507 100.783766 
L 279.792876 84.961423 
L 279.880604 94.27904 
L 280.143788 91.492313 
L 280.231516 87.254729 
L 280.4947 92.791338 
L 281.108796 92.417449 
L 281.459708 82.201433 
L 281.722892 91.682147 
L 282.687901 88.778808 
L 282.775629 91.879879 
L 282.863357 87.163197 
L 284.091549 89.6307 
L 284.179277 94.459131 
L 284.354733 87.464333 
L 284.53019 85.763511 
L 284.617918 91.235545 
L 284.705646 89.387985 
L 284.96883 90.931009 
L 285.933838 84.616702 
L 286.460206 84.86118 
L 286.635662 90.526772 
L 287.337487 91.342089 
L 287.425215 87.243629 
L 287.512943 96.759573 
L 287.688399 83.827111 
L 288.302495 87.852639 
L 288.565679 95.602279 
L 288.741135 85.293834 
L 289.004319 94.439978 
L 289.179775 88.909941 
L 289.355231 88.784776 
L 290.144784 93.416435 
L 290.495696 90.745869 
L 290.671152 85.71085 
L 290.846608 99.885618 
L 291.022064 88.861348 
L 291.109792 91.538485 
L 291.460704 95.056582 
L 291.63616 86.916633 
L 292.074801 90.269139 
L 292.513441 84.626998 
L 292.601169 85.785377 
L 292.952081 87.43819 
L 293.390721 87.993202 
L 293.478449 86.847509 
L 293.566177 91.615715 
L 293.653905 90.064053 
L 293.829361 92.675781 
L 293.917089 87.270252 
L 294.618914 88.34315 
L 294.706642 85.652763 
L 294.79437 90.463147 
L 295.23301 84.290487 
L 295.320738 89.2353 
L 295.67165 92.499446 
L 295.934834 86.364948 
L 296.198018 86.820667 
L 296.54893 93.472727 
L 296.812114 90.786701 
L 296.899842 91.685162 
L 297.338483 91.621912 
L 297.426211 88.801227 
L 298.478947 91.532122 
L 298.654403 93.378701 
L 299.794868 92.09644 
L 299.882596 91.307778 
L 300.847604 84.287452 
L 300.935332 94.620653 
L 301.724884 89.449076 
L 301.90034 91.627002 
L 302.075797 86.308123 
L 302.338981 88.912309 
L 302.602165 89.841931 
L 302.865349 91.199867 
L 303.216261 88.751497 
L 303.303989 93.2418 
L 303.742629 95.121898 
L 304.093541 89.239932 
L 304.181269 92.703186 
L 304.532182 92.705419 
L 304.707638 94.980657 
L 304.970822 89.299478 
L 305.672646 87.892469 
L 305.848102 86.228265 
L 305.93583 91.996448 
L 306.111286 89.638764 
L 306.549926 95.052743 
L 306.725382 89.157549 
L 306.900838 90.701668 
L 307.076295 86.722417 
L 307.778119 91.836126 
L 308.479943 89.53028 
L 308.567671 87.193993 
L 308.743127 92.44885 
L 308.830855 89.861408 
L 309.094039 88.227697 
L 309.269495 90.10211 
L 309.357223 89.34175 
L 309.620408 93.087654 
L 310.146776 88.089012 
L 310.497688 96.203256 
L 310.585416 88.969853 
L 311.813608 88.943532 
L 312.339977 90.83665 
L 312.603161 88.769931 
L 312.954073 93.212631 
L 313.217257 85.44558 
L 313.392713 92.213688 
L 313.919081 93.719239 
L 314.357721 91.932947 
L 314.445449 86.226439 
L 314.533177 86.819739 
L 314.88409 94.664582 
L 315.059546 90.728374 
L 315.673642 89.960639 
L 315.936826 87.922535 
L 316.20001 93.82884 
L 316.375466 91.033015 
L 316.463194 87.143856 
L 316.63865 86.210332 
L 316.901834 91.10458 
L 317.165019 91.173317 
L 317.866843 89.427669 
L 317.954571 87.81525 
L 318.744123 90.786722 
L 318.831851 88.534153 
L 319.270491 93.336378 
L 320.410956 88.496013 
L 320.498684 90.853435 
L 320.586412 90.228047 
L 320.67414 87.965255 
L 321.463692 85.527379 
L 322.077789 92.572221 
L 322.340973 92.4911 
L 322.779613 95.612638 
L 323.042797 91.027486 
L 323.569165 94.836004 
L 323.656893 82.362599 
L 323.744621 90.366795 
L 324.183261 86.609447 
L 324.534173 88.629566 
L 324.70963 91.844555 
L 324.972814 89.805064 
L 325.323726 82.396754 
L 325.499182 92.821696 
L 325.674638 90.626264 
L 326.02555 90.536151 
L 326.113278 85.294408 
L 326.288734 96.929367 
L 326.376462 91.789932 
L 326.815102 88.006691 
L 326.90283 85.714449 
L 327.341471 84.757202 
L 327.516927 90.768225 
L 328.394207 84.077765 
L 328.481935 91.899314 
L 328.832847 90.482947 
L 329.008303 93.504461 
L 329.446943 90.317273 
L 329.6224 92.001549 
L 329.885584 92.376075 
L 330.06104 86.459547 
L 330.93832 94.403715 
L 331.464688 87.806216 
L 331.903328 90.286843 
L 332.166513 93.026793 
L 332.692881 89.995378 
L 332.956065 91.275678 
L 333.131521 84.964396 
L 333.745617 93.96161 
L 334.096529 91.100939 
L 334.184257 86.447633 
L 334.886082 93.073414 
L 335.236994 94.56387 
L 335.324722 90.497802 
L 335.587906 87.728444 
L 335.763362 91.430043 
L 335.938818 88.857759 
L 336.377458 90.333715 
L 336.72837 90.357782 
L 337.079282 86.230654 
L 337.605651 94.42145 
L 338.132019 85.479193 
L 339.184755 79.957606 
L 339.360211 94.71086 
L 339.535667 91.659447 
L 339.798852 90.878952 
L 340.062036 89.240912 
L 340.32522 89.529028 
L 340.412948 82.213357 
L 340.851588 92.902566 
L 341.553412 97.662103 
L 342.07978 97.319646 
L 342.342965 89.027971 
L 342.430693 90.054549 
L 343.132517 91.606003 
L 343.834341 94.283484 
L 344.623893 84.797669 
L 344.974806 86.077426 
L 345.588902 97.698511 
L 346.11527 88.80516 
L 346.290726 87.800447 
L 346.55391 91.450167 
L 346.729366 89.883514 
L 347.255735 92.925527 
L 347.431191 89.875085 
L 347.518919 90.127418 
L 348.220743 86.84078 
L 348.308471 91.60208 
L 348.396199 88.325645 
L 348.747111 85.370802 
L 348.834839 87.03582 
L 348.922567 93.408444 
L 349.098023 90.802109 
L 349.361207 90.86514 
L 349.536663 91.502609 
L 349.975304 90.087692 
L 350.063032 91.912709 
L 350.326216 87.952141 
L 350.764856 91.369724 
L 351.115768 89.224575 
L 351.554408 88.544595 
L 351.729864 95.51155 
L 351.993048 89.740447 
L 352.080776 89.904733 
L 352.168504 90.78452 
L 352.431689 88.286535 
L 352.958057 93.582661 
L 353.308969 90.306017 
L 353.659881 91.658737 
L 353.835337 90.570921 
L 354.273977 90.645866 
L 354.361705 91.983585 
L 354.537161 89.495624 
L 354.800346 90.536495 
L 355.414442 89.014544 
L 356.116266 88.138721 
L 356.203994 92.094343 
L 357.169002 87.771779 
L 357.344459 90.784353 
L 357.519915 88.688998 
L 357.695371 91.350424 
L 357.958555 91.675283 
L 358.397195 90.500661 
L 358.572651 86.824861 
L 358.660379 88.292794 
L 358.748107 85.51122 
L 358.835835 89.468344 
L 359.186747 90.106689 
L 359.362203 84.861336 
L 359.537659 91.565953 
L 359.800844 91.257797 
L 360.064028 91.506114 
L 360.151756 92.96879 
L 360.41494 89.023349 
L 361.29222 91.545047 
L 361.379948 93.458163 
L 361.818588 92.958629 
L 361.906316 90.966541 
L 362.871325 87.776943 
L 363.222237 83.337675 
L 363.309965 88.5954 
L 363.573149 88.491902 
L 363.748605 94.38139 
L 364.011789 87.199376 
L 364.450429 87.885208 
L 364.538157 90.638856 
L 364.88907 90.598535 
L 365.239982 93.921717 
L 365.415438 92.821414 
L 365.678622 92.220927 
L 365.941806 92.287693 
L 366.20499 91.414854 
L 366.555902 89.395267 
L 366.731358 86.14222 
L 366.819086 94.303128 
L 367.169998 86.895914 
L 367.345455 86.895914 
L 367.345455 86.895914 
" clip-path="url(#p2fb10c28b6)" style="fill: none; stroke: #1f77b4; stroke-width: 1.5; stroke-linecap: round"/>
   </g>
   <g id="line2d_16">
    <path d="M 53.454545 198.191431 
L 54.419554 210.073636 
L 367.345455 210.073636 
L 367.345455 210.073636 
" clip-path="url(#p2fb10c28b6)" style="fill: none; stroke: #ff7f0e; stroke-width: 1.5; stroke-linecap: round"/>
   </g>
   <g id="line2d_17">
    <path d="M 53.454545 191.812353 
L 54.331826 140.584724 
L 54.770466 182.986107 
L 55.03365 198.315806 
L 55.47229 190.62953 
L 56.612755 168.867203 
L 57.840947 203.538416 
L 58.542771 201.160369 
L 58.6305 200.361663 
L 58.981412 204.276714 
L 59.332324 202.47899 
L 59.858692 201.480124 
L 60.297332 196.796253 
L 60.911428 195.479932 
L 61.788709 205.791239 
L 62.490533 200.67788 
L 63.280085 205.729012 
L 63.718726 202.861215 
L 64.069638 202.2551 
L 64.332822 203.910963 
L 64.508278 205.254453 
L 65.034646 206.454218 
L 65.122374 206.406155 
L 65.73647 205.24689 
L 65.911926 203.355032 
L 65.999654 205.129914 
L 66.262839 207.998696 
L 66.876935 199.969456 
L 67.315575 207.555926 
L 67.491031 204.944452 
L 68.017399 207.141435 
L 68.105127 208.502017 
L 68.631496 202.803953 
L 69.245592 199.499661 
L 69.421048 204.527469 
L 69.77196 207.501136 
L 69.859688 205.708223 
L 69.947416 201.471775 
L 70.561512 207.090522 
L 70.912424 200.643475 
L 71.000152 201.086866 
L 71.263337 206.246613 
L 71.614249 207.999816 
L 71.789705 204.48116 
L 71.965161 205.253132 
L 72.403801 180.537669 
L 72.491529 168.253733 
L 72.754713 155.942789 
L 73.193353 184.164474 
L 74.070634 209.097471 
L 74.68473 172.890869 
L 75.825194 192.158283 
L 75.912922 196.028983 
L 76.877931 209.760833 
L 77.141115 199.155165 
L 77.492027 160.440269 
L 78.544763 199.043927 
L 78.983404 206.061921 
L 79.246588 206.39404 
L 80.123868 198.281413 
L 80.47478 197.961347 
L 80.825692 202.661978 
L 81.088876 208.315936 
L 81.352061 208.846746 
L 82.667981 201.860007 
L 83.194349 207.73376 
L 83.369805 207.966116 
L 83.983902 205.391422 
L 84.159358 205.858565 
L 84.51027 207.873009 
L 84.861182 205.170461 
L 84.94891 206.259514 
L 85.036638 206.202539 
L 85.212094 206.765942 
L 85.299822 206.597698 
L 86.264831 208.065691 
L 86.966655 207.753999 
L 87.317567 207.909369 
L 87.668479 206.421752 
L 87.931663 207.918404 
L 88.370303 207.509703 
L 88.545759 205.95176 
L 88.9844 208.469331 
L 89.510768 200.523744 
L 90.124864 207.851196 
L 90.475776 209.125646 
L 91.353057 209.218021 
L 91.440785 209.520153 
L 91.616241 208.587758 
L 92.054881 205.459719 
L 92.230337 205.359617 
L 92.756705 209.079718 
L 93.107617 207.02214 
L 93.546257 202.739366 
L 93.89717 204.063711 
L 94.160354 208.786773 
L 94.33581 209.696914 
L 94.686722 208.471168 
L 95.21309 202.288802 
L 95.300818 202.613355 
L 95.827186 208.477346 
L 96.002642 208.988525 
L 96.441283 207.991357 
L 96.792195 206.728546 
L 97.757203 208.290349 
L 98.108115 207.41098 
L 98.459027 208.916674 
L 98.634483 207.910567 
L 99.862676 208.31566 
L 99.950404 207.988694 
L 100.12586 207.921456 
L 100.213588 208.178359 
L 100.301316 208.085017 
L 100.476772 207.293538 
L 100.827684 208.412789 
L 101.00314 207.696478 
L 101.354053 205.644521 
L 101.529509 207.120702 
L 101.880421 206.87875 
L 102.406789 207.306286 
L 102.582245 206.789458 
L 102.933157 208.214598 
L 103.196341 206.515406 
L 103.371797 207.494219 
L 104.336806 200.149656 
L 104.950902 209.190275 
L 105.214086 209.72714 
L 106.003638 200.481403 
L 106.442279 199.14366 
L 106.880919 199.946467 
L 106.968647 200.562579 
L 107.670471 209.781514 
L 107.758199 209.090804 
L 108.284567 200.466613 
L 108.635479 196.093671 
L 108.986392 196.90247 
L 109.600488 200.787978 
L 110.214584 208.918041 
L 110.565496 209.525142 
L 111.004136 205.225535 
L 111.618233 204.802479 
L 111.881417 208.510128 
L 112.407785 208.004963 
L 112.758697 206.863263 
L 113.109609 206.474229 
L 113.811434 208.734086 
L 113.98689 208.820799 
L 114.162346 208.434712 
L 114.250074 207.873256 
L 114.688714 208.637524 
L 115.390538 208.087696 
L 115.829178 208.531256 
L 116.004634 207.520546 
L 116.267818 208.429447 
L 116.531003 206.498143 
L 116.969643 208.445583 
L 117.057371 207.687245 
L 117.232827 208.002514 
L 117.408283 209.300673 
L 117.846923 206.890527 
L 118.373291 208.951823 
L 119.426028 207.896433 
L 120.127852 208.549483 
L 120.21558 208.95458 
L 120.566492 208.500804 
L 120.829676 209.045044 
L 121.09286 209.288438 
L 121.356045 208.559192 
L 121.706957 208.874531 
L 122.233325 208.809994 
L 123.724701 208.38856 
L 123.812429 208.732763 
L 123.900158 208.516871 
L 124.163342 207.483467 
L 125.742446 208.771031 
L 126.093358 207.605074 
L 126.356543 208.913909 
L 126.444271 209.079442 
L 126.707455 209.197453 
L 126.795183 208.935816 
L 127.058367 206.989818 
L 127.233823 208.411855 
L 127.760191 208.043169 
L 128.286559 208.743575 
L 128.549743 208.713137 
L 128.725199 207.630882 
L 129.076112 207.962928 
L 129.427024 207.670437 
L 129.514752 207.819546 
L 130.655216 209.068927 
L 130.830672 208.675817 
L 131.357041 208.837751 
L 131.620225 209.172303 
L 131.883409 208.52347 
L 132.234321 208.81394 
L 132.672961 207.92497 
L 132.760689 208.339351 
L 133.023873 208.390627 
L 133.637969 207.895634 
L 133.901154 208.97895 
L 134.51525 208.340296 
L 134.690706 208.600016 
L 134.866162 208.974939 
L 135.480258 208.911127 
L 135.743442 209.326195 
L 136.357538 201.705797 
L 136.620723 201.966723 
L 136.883907 203.522618 
L 137.322547 208.692356 
L 137.585731 209.697255 
L 138.024371 207.1459 
L 138.901652 204.861555 
L 139.252564 205.873456 
L 139.603476 208.004608 
L 140.129844 209.159954 
L 140.3053 208.939085 
L 140.480756 208.120582 
L 140.74394 208.880863 
L 141.007124 208.785329 
L 141.18258 209.294488 
L 141.358036 209.022364 
L 141.972133 208.741848 
L 142.147589 209.253145 
L 142.761685 208.012068 
L 143.112597 208.195564 
L 143.288053 208.865971 
L 143.902149 208.69526 
L 143.989878 208.844248 
L 144.077606 208.726607 
L 144.603974 209.080616 
L 144.867158 208.886088 
L 146.09535 209.358821 
L 146.270806 208.87455 
L 147.586727 208.965583 
L 147.849911 208.53071 
L 148.464007 209.447816 
L 149.429016 207.447777 
L 149.867656 209.290656 
L 150.218568 209.292744 
L 150.56948 208.095372 
L 150.832664 208.612469 
L 151.446761 207.184941 
L 151.534489 207.369494 
L 151.885401 208.856171 
L 152.148585 209.258721 
L 152.587225 208.360059 
L 153.025865 208.100349 
L 153.639961 208.65904 
L 154.078602 208.87777 
L 154.16633 209.182861 
L 155.04361 208.42947 
L 155.219066 208.86243 
L 155.48225 208.603496 
L 156.096346 209.098753 
L 156.447258 208.540907 
L 156.798171 208.785033 
L 156.973627 209.231049 
L 157.412267 209.116646 
L 157.763179 208.247845 
L 158.114091 208.819466 
L 158.815915 208.755821 
L 158.991372 208.354132 
L 159.605468 209.244605 
L 159.95638 209.475208 
L 160.39502 207.844191 
L 160.570476 208.003554 
L 160.921388 209.335132 
L 162.237309 208.25572 
L 162.412765 208.804839 
L 162.675949 208.997684 
L 162.851405 209.384998 
L 163.114589 209.132291 
L 163.377773 208.933565 
L 163.640957 208.373759 
L 163.728685 208.851448 
L 164.255054 209.578353 
L 164.605966 209.27088 
L 165.044606 207.499071 
L 165.570974 209.158179 
L 165.834158 209.4804 
L 166.535983 207.863191 
L 167.062351 207.113054 
L 167.325535 207.307215 
L 168.904639 209.470748 
L 169.080096 209.309697 
L 169.34328 208.731031 
L 169.431008 209.053828 
L 170.22056 208.366253 
L 171.09784 208.633473 
L 171.361024 207.843624 
L 171.887393 209.2251 
L 172.413761 208.561688 
L 172.852401 209.343301 
L 173.115585 208.564606 
L 173.729681 208.626454 
L 173.817409 208.815225 
L 174.168322 207.930378 
L 174.69469 208.901031 
L 175.045602 208.999725 
L 175.308786 207.925533 
L 175.659698 208.776791 
L 177.414259 208.729379 
L 177.765171 209.324463 
L 178.642451 209.212487 
L 179.081092 208.737102 
L 179.256548 208.904698 
L 179.432004 208.664877 
L 179.519732 208.651775 
L 180.747924 209.5969 
L 181.186564 208.997224 
L 181.274292 209.018033 
L 182.327029 208.856909 
L 182.590213 209.140443 
L 183.204309 209.345299 
L 183.555221 208.76326 
L 183.818405 208.677622 
L 184.169318 209.645563 
L 184.607958 209.403994 
L 184.871142 209.429588 
L 185.485238 208.337633 
L 185.83615 209.456436 
L 187.152071 208.608868 
L 187.678439 209.351182 
L 188.029351 209.278514 
L 188.292535 209.626035 
L 188.906631 208.512538 
L 189.169816 208.50708 
L 189.257544 208.83725 
L 190.134824 209.534306 
L 190.661192 208.65722 
L 191.099832 207.976428 
L 191.363016 208.195777 
L 191.713929 209.101211 
L 192.152569 209.498354 
L 193.029849 208.94942 
L 193.205305 209.384168 
L 193.556217 209.410133 
L 193.731673 209.554184 
L 194.433498 208.96467 
L 195.837146 208.915323 
L 196.53897 209.514664 
L 196.714427 209.404189 
L 196.977611 209.578454 
L 197.591707 208.926187 
L 198.205803 209.046513 
L 198.907627 209.493167 
L 199.25854 209.069608 
L 199.609452 208.899778 
L 199.960364 208.945743 
L 200.399004 209.286664 
L 200.925372 209.305645 
L 201.188556 208.942904 
L 201.627197 208.896476 
L 201.802653 209.208628 
L 202.416749 209.299111 
L 202.592205 208.959765 
L 202.855389 208.880057 
L 203.206301 208.374659 
L 203.294029 208.425631 
L 203.820397 209.04104 
L 204.434494 208.995622 
L 204.873134 209.609321 
L 206.189054 207.97391 
L 206.627694 207.943963 
L 206.890879 207.695761 
L 206.978607 207.872998 
L 207.943615 209.51493 
L 208.996351 208.204521 
L 209.259536 208.512385 
L 209.785904 209.338605 
L 210.049088 209.389041 
L 210.312272 209.013427 
L 211.014096 207.565298 
L 211.189552 207.489151 
L 212.680929 208.937894 
L 213.295025 209.170924 
L 213.382753 209.081329 
L 213.645937 209.122594 
L 213.821393 208.940547 
L 214.172306 208.803544 
L 214.347762 208.887593 
L 215.488226 208.654359 
L 216.277778 209.352781 
L 216.891875 209.479948 
L 218.032339 209.21151 
L 218.295523 208.849869 
L 218.734163 209.102261 
L 219.699172 209.186018 
L 219.962356 209.598044 
L 220.488724 209.257785 
L 220.66418 209.453647 
L 221.366004 209.159565 
L 221.980101 209.397429 
L 222.945109 208.749075 
L 223.471477 209.210824 
L 223.910117 209.580326 
L 224.173301 209.529893 
L 224.436486 209.33538 
L 225.401494 209.363308 
L 225.57695 209.242324 
L 226.717415 209.427684 
L 227.506967 209.327537 
L 227.770151 209.483574 
L 230.05108 209.321613 
L 230.401992 209.496372 
L 231.717912 209.341575 
L 232.068825 209.146478 
L 232.332009 209.15878 
L 232.682921 209.310897 
L 233.297017 209.21378 
L 233.384745 209.059238 
L 233.472473 209.246659 
L 235.051578 209.040756 
L 235.490218 208.918218 
L 236.367498 209.142474 
L 236.542954 209.317334 
L 237.157051 209.350851 
L 237.332507 209.533575 
L 238.122059 209.568771 
L 238.209787 209.437942 
L 238.648427 209.237529 
L 239.701164 209.204342 
L 240.490716 208.964642 
L 241.63118 209.361709 
L 242.508461 209.149317 
L 242.771645 209.260158 
L 243.385741 208.884918 
L 244.964846 209.404769 
L 245.140302 209.223376 
L 245.578942 209.057347 
L 246.017582 209.022882 
L 246.368494 209.342724 
L 247.333503 209.275771 
L 247.421231 209.194094 
L 247.947599 209.206505 
L 248.298511 209.022595 
L 249.789888 208.917131 
L 249.965344 209.037193 
L 251.719904 208.99016 
L 251.983089 208.826864 
L 252.772641 209.389499 
L 253.211281 209.539197 
L 254.176289 209.337021 
L 254.878114 208.872361 
L 255.843122 209.358273 
L 256.983587 209.212475 
L 257.948595 208.756367 
L 258.387235 208.686973 
L 258.650419 208.937912 
L 258.738147 208.935107 
L 258.913603 208.743691 
L 260.054068 208.578408 
L 262.861365 209.225859 
L 263.036821 209.096955 
L 263.124549 209.181666 
L 263.475461 209.111701 
L 264.966838 208.868418 
L 266.370486 208.9709 
L 266.721398 208.703506 
L 266.809126 208.899609 
L 268.388231 208.852365 
L 269.704152 209.213226 
L 270.055064 209.126101 
L 270.405976 209.298632 
L 271.020072 209.156035 
L 271.1078 209.309899 
L 272.686905 209.205542 
L 273.301001 208.74078 
L 274.002825 208.973228 
L 274.090553 208.886434 
L 274.266009 209.155931 
L 274.441466 209.077628 
L 275.757386 208.96855 
L 275.932842 208.82932 
L 276.196026 208.978496 
L 278.389227 209.164994 
L 279.003323 209.369211 
L 279.266507 209.213449 
L 280.4947 209.25601 
L 281.108796 209.366819 
L 281.284252 209.280149 
L 281.722892 209.419129 
L 282.863357 209.07222 
L 284.091549 209.345905 
L 284.53019 209.274943 
L 284.96883 209.313351 
L 286.635662 209.306583 
L 287.512943 209.20285 
L 289.355231 208.789195 
L 290.671152 208.958118 
L 291.022064 208.991716 
L 291.109792 209.178085 
L 291.460704 209.133755 
L 291.63616 209.31401 
L 292.601169 209.522475 
L 293.390721 209.449012 
L 293.829361 209.263608 
L 293.917089 209.299629 
L 294.79437 209.169684 
L 295.23301 208.999674 
L 295.320738 209.121032 
L 295.934834 209.121006 
L 296.373474 209.223538 
L 296.54893 209.15674 
L 298.478947 209.197603 
L 298.654403 209.158386 
L 299.882596 209.370336 
L 300.935332 209.324033 
L 302.075797 209.542573 
L 302.338981 209.412734 
L 303.216261 209.490959 
L 303.303989 209.416171 
L 308.479943 208.754159 
L 308.567671 208.635428 
L 308.743127 208.823053 
L 308.830855 208.660911 
L 309.094039 208.588804 
L 309.620408 208.894858 
L 310.497688 208.604516 
L 310.585416 208.74898 
L 312.603161 208.589681 
L 313.217257 208.728295 
L 313.392713 208.780964 
L 313.919081 208.802449 
L 314.357721 209.043451 
L 314.445449 208.936903 
L 314.533177 209.027399 
L 315.059546 209.183735 
L 315.936826 209.148126 
L 316.20001 209.301074 
L 316.463194 209.169941 
L 316.901834 209.261065 
L 317.165019 209.182491 
L 318.393211 209.159473 
L 319.270491 209.099601 
L 320.67414 209.277917 
L 322.340973 209.121534 
L 323.569165 209.171139 
L 323.744621 209.037934 
L 325.411454 209.124036 
L 325.499182 209.171836 
L 325.674638 209.003289 
L 326.376462 209.15913 
L 327.516927 209.062342 
L 332.166513 208.967997 
L 333.570161 209.080891 
L 333.745617 209.028576 
L 334.184257 209.075194 
L 335.763362 208.974019 
L 335.938818 208.916527 
L 337.605651 208.910697 
L 340.412948 209.040196 
L 341.553412 208.917374 
L 343.132517 209.210903 
L 345.588902 209.376654 
L 346.11527 209.316356 
L 346.290726 209.149256 
L 346.729366 209.137576 
L 347.431191 209.101554 
L 347.518919 208.98581 
L 348.220743 209.182419 
L 349.098023 209.048507 
L 349.536663 209.07852 
L 350.063032 209.075088 
L 350.326216 209.013348 
L 350.852584 209.189864 
L 351.115768 209.046881 
L 352.958057 209.362353 
L 353.308969 209.237308 
L 354.361705 209.339479 
L 354.537161 209.464111 
L 354.800346 209.373769 
L 355.414442 209.370447 
L 357.169002 209.347394 
L 358.484923 209.26906 
L 358.835835 209.254694 
L 359.800844 209.295855 
L 360.41494 209.266427 
L 361.906316 209.280554 
L 367.345455 209.359742 
L 367.345455 209.359742 
" clip-path="url(#p2fb10c28b6)" style="fill: none; stroke: #2ca02c; stroke-width: 1.5; stroke-linecap: round"/>
   </g>
   <g id="patch_3">
    <path d="M 37.76 219.46 
L 37.76 12.96 
" style="fill: none; stroke: #262626; stroke-width: 1.25; stroke-linejoin: miter; stroke-linecap: square"/>
   </g>
   <g id="patch_4">
    <path d="M 383.04 219.46 
L 383.04 12.96 
" style="fill: none; stroke: #262626; stroke-width: 1.25; stroke-linejoin: miter; stroke-linecap: square"/>
   </g>
   <g id="patch_5">
    <path d="M 37.76 219.46 
L 383.04 219.46 
" style="fill: none; stroke: #262626; stroke-width: 1.25; stroke-linejoin: miter; stroke-linecap: square"/>
   </g>
   <g id="patch_6">
    <path d="M 37.76 12.96 
L 383.04 12.96 
" style="fill: none; stroke: #262626; stroke-width: 1.25; stroke-linejoin: miter; stroke-linecap: square"/>
   </g>
   <g id="legend_1">
    <g id="patch_7">
     <path d="M 186.09 68.439531 
L 234.71 68.439531 
Q 236.91 68.439531 236.91 66.239531 
L 236.91 20.66 
Q 236.91 18.46 234.71 18.46 
L 186.09 18.46 
Q 183.89 18.46 183.89 20.66 
L 183.89 66.239531 
Q 183.89 68.439531 186.09 68.439531 
z
" style="fill: #ffffff; opacity: 0.8; stroke: #cccccc; stroke-linejoin: miter"/>
    </g>
    <g id="line2d_18">
     <path d="M 188.29 26.883594 
L 199.29 26.883594 
L 210.29 26.883594 
" style="fill: none; stroke: #1f77b4; stroke-width: 1.5; stroke-linecap: round"/>
    </g>
    <g id="text_17">
     <!-- $\mathcal{L}_S$ -->
     <g style="fill: #262626" transform="translate(219.09 30.733594) scale(0.11 -0.11)">
      <defs>
       <path id="STIXNonUnicode-Italic-e238" d="M 4070 915 
L 4179 800 
Q 3347 -45 2413 -45 
Q 2157 -45 1850 26 
Q 1395 122 1146 122 
Q 1005 122 672 61 
Q 339 0 192 0 
L 230 154 
Q 582 154 730 749 
L 1178 2566 
Q 1286 3008 1516 3353 
Q 1747 3699 2025 3894 
Q 2304 4090 2585 4189 
Q 2867 4288 3123 4288 
Q 3443 4288 3593 4083 
Q 3744 3878 3744 3584 
Q 3744 3347 3593 3200 
Q 3443 3053 3226 3053 
Q 3085 3053 2995 3149 
Q 2906 3245 2906 3379 
Q 2906 3482 2957 3552 
Q 3008 3622 3065 3644 
Q 3123 3667 3174 3705 
Q 3226 3744 3226 3789 
Q 3226 4032 2854 4032 
Q 2522 4032 2310 3785 
Q 2099 3539 1990 3132 
Q 1882 2726 1795 2284 
Q 1709 1843 1549 1363 
Q 1389 883 1158 589 
L 1158 563 
Q 1363 704 1888 704 
Q 2227 704 2460 544 
Q 2694 384 2963 384 
Q 3507 384 4070 915 
z
" transform="scale(0.015625)"/>
       <path id="DejaVuSans-Oblique-53" d="M 3859 4513 
L 3738 3897 
Q 3422 4066 3111 4152 
Q 2800 4238 2509 4238 
Q 1944 4238 1609 3991 
Q 1275 3744 1275 3334 
Q 1275 3109 1398 2989 
Q 1522 2869 2034 2731 
L 2413 2638 
Q 3053 2472 3303 2217 
Q 3553 1963 3553 1503 
Q 3553 797 2998 353 
Q 2444 -91 1538 -91 
Q 1166 -91 791 -17 
Q 416 56 38 206 
L 166 856 
Q 513 641 861 531 
Q 1209 422 1556 422 
Q 2147 422 2503 684 
Q 2859 947 2859 1369 
Q 2859 1650 2717 1795 
Q 2575 1941 2106 2059 
L 1728 2156 
Q 1081 2325 845 2545 
Q 609 2766 609 3163 
Q 609 3859 1145 4304 
Q 1681 4750 2541 4750 
Q 2875 4750 3203 4690 
Q 3531 4631 3859 4513 
z
" transform="scale(0.015625)"/>
      </defs>
      <use xlink:href="#STIXNonUnicode-Italic-e238"/>
      <use xlink:href="#DejaVuSans-Oblique-53" transform="translate(70.257019 -16.40625) scale(0.7)"/>
     </g>
    </g>
    <g id="line2d_19">
     <path d="M 188.29 42.443437 
L 199.29 42.443437 
L 210.29 42.443437 
" style="fill: none; stroke: #ff7f0e; stroke-width: 1.5; stroke-linecap: round"/>
    </g>
    <g id="text_18">
     <!-- $\mathcal{L}_C$ -->
     <g style="fill: #262626" transform="translate(219.09 46.293437) scale(0.11 -0.11)">
      <defs>
       <path id="DejaVuSans-Oblique-43" d="M 4447 4306 
L 4319 3641 
Q 4019 3944 3683 4091 
Q 3347 4238 2956 4238 
Q 2422 4238 2017 3981 
Q 1613 3725 1319 3200 
Q 1131 2863 1032 2486 
Q 934 2109 934 1728 
Q 934 1091 1264 756 
Q 1594 422 2222 422 
Q 2656 422 3056 561 
Q 3456 700 3834 978 
L 3688 231 
Q 3316 72 2936 -9 
Q 2556 -91 2175 -91 
Q 1278 -91 773 396 
Q 269 884 269 1753 
Q 269 2309 461 2846 
Q 653 3384 1013 3828 
Q 1394 4300 1883 4525 
Q 2372 4750 3022 4750 
Q 3422 4750 3780 4639 
Q 4138 4528 4447 4306 
z
" transform="scale(0.015625)"/>
      </defs>
      <use xlink:href="#STIXNonUnicode-Italic-e238"/>
      <use xlink:href="#DejaVuSans-Oblique-43" transform="translate(70.257019 -16.40625) scale(0.7)"/>
     </g>
    </g>
    <g id="line2d_20">
     <path d="M 188.29 58.003281 
L 199.29 58.003281 
L 210.29 58.003281 
" style="fill: none; stroke: #2ca02c; stroke-width: 1.5; stroke-linecap: round"/>
    </g>
    <g id="text_19">
     <!-- $\mathcal{L}_I$ -->
     <g style="fill: #262626" transform="translate(219.09 61.853281) scale(0.11 -0.11)">
      <defs>
       <path id="DejaVuSans-Oblique-49" d="M 1081 4666 
L 1716 4666 
L 806 0 
L 172 0 
L 1081 4666 
z
" transform="scale(0.015625)"/>
      </defs>
      <use xlink:href="#STIXNonUnicode-Italic-e238"/>
      <use xlink:href="#DejaVuSans-Oblique-49" transform="translate(70.257019 -16.40625) scale(0.7)"/>
     </g>
    </g>
   </g>
  </g>
 </g>
 <defs>
  <clipPath id="p2fb10c28b6">
   <rect x="37.76" y="12.96" width="345.28" height="206.5"/>
  </clipPath>
 </defs>
</svg>
